<?xml version="1.0" standalone="no"?>
<!DOCTYPE svg PUBLIC "-//W3C//DTD SVG 20010904//EN"
 "http://www.w3.org/TR/2001/REC-SVG-20010904/DTD/svg10.dtd">
<svg version="1.0" xmlns="http://www.w3.org/2000/svg"
 width="377.000000pt" height="377.000000pt" viewBox="0 0 377.000000 377.000000"
 preserveAspectRatio="xMidYMid meet">
<metadata>
Created by potrace 1.14, written by Peter Selinger 2001-2017
</metadata>
<g transform="translate(0.000000,377.000000) scale(0.100000,-0.100000)"
fill="#000000" stroke="none">
<path d="M1750 3693 c-69 -41 -134 -78 -145 -84 -11 -5 -33 -17 -50 -28 -28
-17 -205 -119 -600 -346 -93 -54 -249 -144 -345 -200 -96 -56 -179 -104 -185
-106 -5 -2 -47 -26 -92 -52 l-83 -49 0 -943 0 -942 82 -48 c86 -50 123 -71
198 -113 25 -14 62 -36 82 -49 21 -12 40 -23 43 -23 3 0 18 -8 33 -19 15 -10
108 -65 207 -122 99 -56 248 -142 332 -191 83 -48 167 -96 185 -106 226 -130
445 -256 455 -264 7 -6 28 1 60 20 38 24 389 226 541 313 18 11 90 52 160 93
527 304 793 457 832 479 l45 25 3 945 2 945 -312 180 c-172 99 -401 231 -508
293 -107 61 -208 120 -225 129 -16 10 -142 83 -280 162 -137 80 -263 152 -280
160 -30 15 -32 14 -155 -59z m178 -162 c26 -15 68 -39 93 -53 24 -14 154 -89
289 -168 135 -78 268 -155 295 -170 28 -15 187 -107 354 -204 167 -97 306
-176 308 -176 3 0 18 -9 34 -21 l29 -20 -2 -837 -3 -836 -90 -54 c-49 -29 -99
-57 -110 -62 -11 -6 -27 -14 -35 -20 -14 -9 -134 -79 -220 -128 -40 -22 -509
-293 -796 -459 -189 -109 -191 -110 -220 -95 -16 8 -247 141 -514 295 -267
154 -500 288 -517 299 -18 10 -48 27 -65 37 -18 10 -98 56 -178 102 l-145 84
0 840 0 839 85 49 c47 27 114 66 150 87 36 21 270 156 520 301 250 144 507
292 570 330 63 37 116 68 117 68 1 1 24 -12 51 -28z"/>
<path d="M1180 2950 l-605 -346 -1 -410 c0 -225 1 -414 3 -419 2 -7 168 -10
481 -10 262 1 482 0 487 -2 7 -2 10 -154 9 -436 -1 -237 -2 -435 -3 -439 0 -3
-85 39 -188 94 -247 132 -414 221 -488 259 l-60 31 0 130 c0 71 -2 133 -5 138
-3 4 -52 11 -110 15 -58 4 -108 9 -112 11 -13 8 -15 -32 -14 -236 l1 -204 380
-214 c209 -117 403 -226 430 -241 28 -15 122 -68 210 -118 88 -49 169 -95 180
-101 20 -10 20 -8 19 771 -1 430 -2 784 -3 787 -1 5 -403 4 -808 -3 -128 -2
-152 0 -155 13 -2 8 -4 114 -3 235 l0 219 80 47 c141 81 634 360 641 362 6 2
6 -366 0 -570 -1 -61 1 -93 8 -94 26 -3 212 3 226 6 13 4 15 70 15 534 0 291
-2 531 -5 533 -3 2 -277 -152 -610 -342z"/>
<path d="M1990 1885 l0 -1406 23 12 c18 10 349 192 917 505 69 38 146 80 173
94 l47 25 0 323 0 323 -252 -4 -253 -5 0 -101 c0 -83 3 -101 15 -102 63 -4
136 -7 198 -8 l72 -1 0 -129 0 -129 -182 -103 c-101 -56 -203 -113 -228 -127
-25 -13 -105 -58 -178 -100 -73 -41 -135 -73 -137 -70 -7 6 -14 2018 -8 2018
4 0 172 -93 375 -206 l368 -206 0 -139 0 -139 105 0 105 0 0 208 -1 207 -521
300 c-287 165 -547 315 -580 333 l-58 33 0 -1406z"/>
</g>
</svg>
