<svg xmlns="http://www.w3.org/2000/svg" xml:space="preserve" id="artwork" x="0" y="0" style="enable-background:new 0 0 646 191.5" version="1.1" viewBox="0 0 646 191.5"><style>.st1{fill:#fff;stroke:#fff;stroke-width:.2;stroke-miterlimit:10}</style><path d="M622.074 191.407H23.926C10.767 191.407 0 180.641 0 167.481V23.926C0 10.767 10.767 0 23.926 0h598.148C635.233 0 646 10.767 646 23.926v143.556c0 13.159-10.767 23.925-23.926 23.925z"/><path d="M622.074 3.828c11.082 0 20.098 9.017 20.098 20.099v143.556c0 11.082-9.015 20.099-20.098 20.099H23.926c-11.082 0-20.098-9.017-20.098-20.099V23.927c0-11.082 9.015-20.099 20.098-20.099h598.148m0-3.827H23.926C10.767.001 0 10.767 0 23.927v143.556c0 13.159 10.767 23.926 23.926 23.926h598.148c13.159 0 23.926-10.767 23.926-23.926V23.927C646 10.767 635.233.001 622.074.001z" style="fill:#a6a6a6"/><path d="M226.91 49.015c0 4.01-1.189 7.205-3.568 9.584-2.674 2.834-6.189 4.25-10.547 4.25-4.17 0-7.698-1.443-10.586-4.331-2.887-2.887-4.331-6.442-4.331-10.667 0-4.224 1.444-7.779 4.331-10.667 2.888-2.887 6.416-4.331 10.586-4.331 2.112 0 4.104.375 5.976 1.123 1.871.749 3.408 1.805 4.611 3.168l-2.646 2.646c-.883-1.069-2.025-1.905-3.429-2.506-1.403-.602-2.907-.902-4.512-.902-3.127 0-5.774 1.083-7.939 3.248-2.139 2.192-3.208 4.932-3.208 8.22 0 3.289 1.069 6.029 3.208 8.221 2.165 2.166 4.812 3.248 7.939 3.248 2.86 0 5.239-.802 7.139-2.406 1.897-1.604 2.993-3.81 3.288-6.617h-10.427v-3.449h13.915c.134.751.2 1.473.2 2.168zM248.966 33.496v3.529h-13.073v9.103h11.79v3.449h-11.79v9.103h13.073v3.529h-16.763V33.496h16.763zM264.524 37.025v25.183h-3.689V37.025h-8.021v-3.529h19.729v3.529h-8.019zM290.507 62.208h-3.689V33.496h3.689v28.712zM306.868 37.025v25.183h-3.689V37.025h-8.021v-3.529h19.729v3.529h-8.019zM356.471 47.852c0 4.251-1.417 7.807-4.25 10.667-2.861 2.887-6.363 4.331-10.507 4.331-4.17 0-7.673-1.443-10.506-4.331-2.834-2.86-4.251-6.416-4.251-10.667 0-4.25 1.417-7.806 4.251-10.667 2.833-2.887 6.336-4.331 10.506-4.331 4.171 0 7.673 1.458 10.507 4.371 2.833 2.861 4.25 6.403 4.25 10.627zm-25.744 0c0 3.315 1.043 6.055 3.128 8.221 2.111 2.166 4.731 3.248 7.859 3.248s5.734-1.083 7.819-3.248c2.112-2.139 3.168-4.878 3.168-8.221 0-3.341-1.056-6.081-3.168-8.22-2.085-2.166-4.691-3.248-7.819-3.248s-5.748 1.083-7.859 3.248c-2.085 2.165-3.128 4.905-3.128 8.22zM365.333 62.208h-3.689V33.496h4.491l13.955 22.335h.16l-.16-5.534V33.496h3.689v28.711h-3.85l-14.597-23.418h-.16l.16 5.534v17.885z" class="st1"/><path d="M326.043 104.086c-11.256 0-20.429 8.557-20.429 20.352 0 11.718 9.174 20.352 20.429 20.352 11.255 0 20.429-8.634 20.429-20.352 0-11.795-9.174-20.352-20.429-20.352zm0 32.686c-6.167 0-11.487-5.088-11.487-12.335 0-7.324 5.32-12.335 11.487-12.335s11.486 5.011 11.486 12.335c0 7.247-5.319 12.335-11.486 12.335zm-44.567-32.686c-11.256 0-20.429 8.557-20.429 20.352 0 11.718 9.174 20.352 20.429 20.352 11.255 0 20.429-8.634 20.429-20.352 0-11.795-9.173-20.352-20.429-20.352zm0 32.686c-6.168 0-11.487-5.088-11.487-12.335 0-7.324 5.319-12.335 11.487-12.335 6.167 0 11.486 5.011 11.486 12.335.001 7.247-5.318 12.335-11.486 12.335zm-53.014-26.442v8.634h20.661c-.617 4.857-2.235 8.403-4.703 10.87-3.007 3.007-7.709 6.322-15.958 6.322-12.72 0-22.665-10.253-22.665-22.973 0-12.72 9.945-22.973 22.665-22.973 6.861 0 11.872 2.698 15.573 6.167l6.09-6.09c-5.165-4.934-12.026-8.711-21.663-8.711-17.423 0-32.07 14.185-32.07 31.607 0 17.423 14.647 31.607 32.07 31.607 9.405 0 16.498-3.084 22.048-8.865 5.705-5.705 7.478-13.722 7.478-20.198 0-2.004-.154-3.855-.463-5.396h-29.063zm216.809 6.707c-1.696-4.548-6.861-12.951-17.423-12.951-10.485 0-19.196 8.249-19.196 20.352 0 11.41 8.634 20.352 20.198 20.352 9.328 0 14.725-5.705 16.96-9.02l-6.938-4.625c-2.313 3.392-5.473 5.628-10.022 5.628s-7.786-2.081-9.868-6.167l27.214-11.255-.925-2.314zm-27.753 6.784c-.232-7.863 6.09-11.872 10.638-11.872 3.546 0 6.553 1.773 7.555 4.317l-18.193 7.555zm-22.126 19.736h8.943V83.734h-8.943v59.823zm-14.647-34.923h-.308c-2.004-2.39-5.859-4.548-10.716-4.548-10.176 0-19.504 8.943-19.504 20.429 0 11.41 9.328 20.275 19.504 20.275 4.857 0 8.711-2.158 10.716-4.625h.308v2.929c0 7.786-4.163 11.949-10.87 11.949-5.473 0-8.866-3.932-10.253-7.246l-7.786 3.238c2.236 5.396 8.172 12.026 18.039 12.026 10.485 0 19.35-6.167 19.35-21.2v-36.542h-8.48v3.315zm-10.253 28.138c-6.167 0-11.333-5.165-11.333-12.258 0-7.169 5.166-12.412 11.333-12.412 6.09 0 10.87 5.242 10.87 12.412 0 7.093-4.78 12.258-10.87 12.258zM487.16 83.735h-21.395v59.821h8.927v-22.664h12.468c9.898 0 19.625-7.165 19.625-18.579 0-11.413-9.728-18.578-19.625-18.578zm.23 28.831h-12.699V92.061h12.699c6.676 0 10.467 5.528 10.467 10.253 0 4.635-3.791 10.252-10.467 10.252zm55.182-8.59c-6.465 0-13.16 2.848-15.931 9.158l7.927 3.309c1.693-3.309 4.849-4.387 8.158-4.387 4.618 0 9.312 2.771 9.389 7.696v.616c-1.616-.924-5.08-2.309-9.312-2.309-8.543 0-17.239 4.695-17.239 13.468 0 8.004 7.003 13.16 14.854 13.16 6.003 0 9.312-2.694 11.39-5.849h.308v4.618h8.62v-22.934c-.002-10.62-7.929-16.546-18.164-16.546zm-1.078 32.785c-2.925 0-7.003-1.462-7.003-5.079 0-4.618 5.079-6.388 9.466-6.388 3.925 0 5.772.847 8.158 2.001-.693 5.541-5.465 9.466-10.621 9.466zm50.641-31.477-10.236 25.936h-.308l-10.621-25.936h-9.62l15.931 36.249-9.081 20.164h9.312l24.551-56.412h-9.928zm-80.425 38.272h8.927V83.735h-8.927v59.821z" style="fill:#fff"/><path d="M99.136 92.948 48.19 147.021l.008.033c1.563 5.871 6.924 10.195 13.29 10.195 2.543 0 4.932-.688 6.981-1.895l.162-.097 57.345-33.088-26.84-29.221z" style="fill:#ea4335"/><path d="m150.677 83.741-.049-.032-24.757-14.354-27.892 24.821 27.99 27.985 24.626-14.209c4.317-2.332 7.248-6.883 7.248-12.13.001-5.215-2.89-9.741-7.166-12.081z" style="fill:#fbbc04"/><path d="M48.187 44.393a13.56 13.56 0 0 0-.467 3.541v95.548c0 1.227.16 2.414.47 3.538l52.698-52.688-52.701-49.939z" style="fill:#4285f4"/><path d="m99.512 95.709 26.367-26.362L68.6 36.137a13.787 13.787 0 0 0-7.111-1.968c-6.366 0-11.735 4.332-13.298 10.211a.325.325 0 0 0-.003.014l51.324 51.315z" style="fill:#34a853"/></svg>