<svg width="521" height="96" viewBox="0 0 521 96" fill="none" xmlns="http://www.w3.org/2000/svg">
<path d="M453.182 21.165H428.355V75H438.19V61.5987C438.19 60.2968 438.703 59.0388 439.632 58.1198C440.55 57.2009 441.807 56.6757 443.107 56.6757H453.182C457.881 56.6757 462.384 54.805 465.695 51.4902C469.017 48.1645 470.874 43.6573 470.874 38.9641C470.885 36.6339 470.437 34.3147 469.552 32.1595C468.667 30.0044 467.367 28.0352 465.717 26.3833C464.066 24.7314 462.121 23.4186 459.969 22.5215C457.827 21.6244 455.521 21.165 453.182 21.165ZM460.93 38.8219C460.93 39.9268 460.712 41.0208 460.285 42.0382C459.859 43.0556 459.247 43.9855 458.461 44.7622C457.685 45.539 456.756 46.1625 455.74 46.5783C454.723 47.0049 453.63 47.2128 452.527 47.2128H438.146V30.442H452.527C453.63 30.442 454.723 30.6608 455.75 31.0874C456.767 31.5141 457.696 32.1376 458.471 32.9144C459.247 33.702 459.87 34.6319 460.285 35.6493C460.701 36.6777 460.919 37.7717 460.908 38.8766L460.93 38.8219Z" fill="#6D4AFF"/>
<path d="M393.812 74.8032L374 21.0119H385.19L398.227 59.5093C398.74 60.8877 399.112 62.3099 399.331 63.7649H399.44C399.604 62.299 399.975 60.8658 400.543 59.5093L413.624 21.0119H424.89L404.98 74.8032H393.812Z" fill="#6D4AFF"/>
<path d="M474.557 74.8022V21H483.179L508.553 54.3666C509.471 55.5153 510.258 56.7515 510.925 58.0642H511.078C510.903 56.4451 510.826 54.8151 510.837 53.1851V21H521V74.7913H512.378L486.927 41.4247C486.031 40.2651 485.244 39.0289 484.567 37.727H484.479C484.622 39.3461 484.676 40.9762 484.643 42.6062V74.7913H474.557V74.8022Z" fill="#6D4AFF"/>
<path d="M144 60.3119V74.1575H153.668V60.9167C153.668 59.6315 154.172 58.3895 155.085 57.4823C155.988 56.5751 157.223 56.0567 158.501 56.0567H168.416C173.035 56.0567 177.471 54.2099 180.737 50.9159C184.002 47.6327 185.839 43.1723 185.839 38.5284C185.839 33.8844 184.002 29.424 180.737 26.13C177.471 22.8468 173.035 21 168.405 21H144V38.3016H153.668V30.1476H167.761C169.952 30.1476 172.047 31.0224 173.593 32.5776C175.14 34.1328 176.01 36.2388 176.01 38.442C176.01 40.6452 175.14 42.7511 173.593 44.3063C172.047 45.8615 169.952 46.7363 167.761 46.7363H157.524C155.751 46.7363 153.99 47.0819 152.357 47.7731C150.714 48.4535 149.231 49.4579 147.974 50.7215C146.718 51.9851 145.729 53.4863 145.042 55.1279C144.354 56.7587 144 58.5299 144 60.3119Z" fill="#1B1340"/>
<path d="M187.332 74.1574V53.0651C187.332 44.4575 192.327 37.6103 202.328 37.6103C203.928 37.5887 205.529 37.7615 207.097 38.1395V46.8119C205.958 46.7363 204.981 46.7363 204.519 46.7363C199.223 46.7363 196.946 49.1771 196.946 54.1235V74.1574H187.332Z" fill="#1B1340"/>
<path d="M209.975 56.2728C209.975 45.6889 217.924 37.6213 228.988 37.6213C240.052 37.6213 248.001 45.6889 248.001 56.2728C248.001 66.8568 240.052 75 228.988 75C217.924 75 209.975 66.846 209.975 56.2728ZM238.527 56.2728C238.527 50.2573 234.51 45.9913 228.988 45.9913C223.456 45.9913 219.45 50.2465 219.45 56.2728C219.45 62.364 223.467 66.5544 228.988 66.5544C234.52 66.5544 238.527 62.3532 238.527 56.2728Z" fill="#1B1340"/>
<path d="M278.744 56.2728C278.744 45.6889 286.693 37.6213 297.757 37.6213C308.81 37.6213 316.759 45.6889 316.759 56.2728C316.759 66.8568 308.81 75 297.757 75C286.693 75 278.744 66.846 278.744 56.2728ZM307.285 56.2728C307.285 50.2573 303.268 45.9913 297.746 45.9913C292.225 45.9913 288.208 50.2465 288.208 56.2728C288.208 62.364 292.225 66.5544 297.746 66.5544C303.268 66.5544 307.285 62.3532 307.285 56.2728Z" fill="#1B1340"/>
<path d="M321.754 74.1576V53.8321C321.754 44.3929 327.738 37.6105 338.415 37.6105C349.017 37.6105 355 44.3821 355 53.8321V74.1576H345.461V54.5881C345.461 49.3393 343.109 46.0561 338.415 46.0561C333.721 46.0561 331.368 49.3285 331.368 54.5881V74.1576H321.754Z" fill="#1B1340"/>
<path d="M275.865 46.0663H265.489V59.3935C265.489 64.0375 267.154 66.1651 271.923 66.1651C272.374 66.1651 273.513 66.1651 274.952 66.0895V73.9303C272.987 74.4595 271.247 74.7727 269.345 74.7727C261.321 74.7727 255.864 69.9019 255.864 60.6895V46.0663H249.419V38.3768H251.031C251.664 38.3768 252.298 38.2472 252.878 38.0096C253.469 37.7612 253.995 37.4048 254.446 36.9512C254.898 36.4976 255.252 35.9684 255.499 35.3744C255.746 34.7804 255.864 34.154 255.864 33.5168V26.27H265.478V38.3768H275.855V46.0663H275.865Z" fill="#1B1340"/>
<path fill-rule="evenodd" clip-rule="evenodd" d="M42.5777 90.3227C46.6063 97.5649 56.9516 97.9572 61.5254 91.0411L104.173 26.553C108.695 19.7142 104.368 10.5453 96.1784 9.61345L12.3538 0.0757338C3.41684 -0.941129 -2.94633 8.48233 1.40053 16.2968L42.5777 90.3227Z" fill="url(#paint0_linear_11985_190898)"/>
<path d="M44.9795 83.5676L48.7644 77.9224L77.514 34.4946C80.0276 30.6977 77.6284 25.6042 73.0805 25.0821L1.73145 16.8906L38.6923 83.3371C40.0412 85.7151 43.4519 85.846 44.9795 83.5676Z" fill="url(#paint1_linear_11985_190898)"/>
<defs>
<linearGradient id="paint0_linear_11985_190898" x1="95.8546" y1="90.3178" x2="27.6489" y2="-27.3041" gradientUnits="userSpaceOnUse">
<stop offset="0.0660125" stop-color="#8EFFEE"/>
<stop offset="0.4499" stop-color="#C9C7FF"/>
<stop offset="1" stop-color="#7341FF"/>
</linearGradient>
<linearGradient id="paint1_linear_11985_190898" x1="102.091" y1="-105.022" x2="6.57935" y2="99.2692" gradientUnits="userSpaceOnUse">
<stop offset="0.4799" stop-color="#6D4AFF"/>
<stop offset="0.9944" stop-color="#00F0C3"/>
</linearGradient>
</defs>
</svg>
